<svg width="48" height="48" viewBox="0 0 48 48" fill="none" xmlns="http://www.w3.org/2000/svg">
  <defs>
    <linearGradient id="gradient" x1="0%" y1="0%" x2="100%" y2="100%">
      <stop offset="0%" style="stop-color:#667eea;stop-opacity:1" />
      <stop offset="100%" style="stop-color:#764ba2;stop-opacity:1" />
    </linearGradient>
  </defs>
  
  <!-- 背景圓形 -->
  <circle cx="24" cy="24" r="22" fill="url(#gradient)" stroke="rgba(255,255,255,0.3)" stroke-width="2"/>
  
  <!-- 大腦圖標 -->
  <path d="M16 20c0-4.4 3.6-8 8-8s8 3.6 8 8c0 1.1-.2 2.1-.6 3.1.4.9.6 1.9.6 2.9 0 3.3-2.7 6-6 6h-4c-3.3 0-6-2.7-6-6 0-1 .2-2 .6-2.9-.4-1-.6-2-.6-3.1z" fill="white" opacity="0.9"/>
  
  <!-- 大腦細節 -->
  <path d="M20 18c0-2.2 1.8-4 4-4s4 1.8 4 4" stroke="rgba(102,126,234,0.6)" stroke-width="1.5" fill="none"/>
  <path d="M18 22c0-1.1.9-2 2-2h8c1.1 0 2 .9 2 2" stroke="rgba(102,126,234,0.6)" stroke-width="1.5" fill="none"/>
  
  <!-- AI 點 -->
  <circle cx="20" cy="24" r="1.5" fill="#667eea"/>
  <circle cx="24" cy="22" r="1.5" fill="#667eea"/>
  <circle cx="28" cy="24" r="1.5" fill="#667eea"/>
</svg>
